<?xml version="1.0" encoding="UTF-8"?>
<svg viewBox="0 0 512 512" xmlns="http://www.w3.org/2000/svg" xmlns:xlink="http://www.w3.org/1999/xlink">
<path d="M501.143 32.926l-187.14 135.37-30.71 22.264c-16.267 12.026-38.473 12.026-54.741 0l-30.709-22.264-187.37-135.14A55.31 55.31 0 0155.646 10h400.542a55.624 55.624 0 0144.95 22.934z" fill="#ffd54f"/>
<g fill="#ffc107">
<path d="M10.46 33.231l187.43 135.113-181.64 181.64A55.65 55.65 0 010 310.583V65.723a54.983 54.983 0 0110.463-32.5zM512 65.618v245.008a55.687 55.687 0 01-16.26 39.423L313.993 168.301 501.306 32.877a55.366 55.366 0 0110.69 32.741z"/>
</g>
<path d="m333.9 410.76c-14.784 0-22.264-11.132-22.264-33.396 0.364-31.107-24.558-56.619-55.665-56.983-31.108-0.364-56.62 24.558-56.983 55.666-0.364 31.107 24.558 56.619 55.665 56.982a56.33 56.33 0 0 0 43.425-19.663 39.697 39.697 0 0 0 35.823 19.658c44.528 0 44.528-41.9 44.528-55.66 1e-3 -67.628-54.821-122.44-122.44-122.46-67.627-0.01-122.44 54.822-122.46 122.44 0 67.628 54.822 122.44 122.44 122.46a122.45 122.45 0 0 0 85.14-34.44c4.421-4.305 4.515-11.376 0.212-15.797-4.304-4.42-11.376-4.514-15.796-0.212-39.826 38.413-103.25 37.268-141.67-2.559-38.411-39.826-37.268-103.25 2.558-141.67 39.827-38.41 103.25-37.267 141.67 2.559a100.19 100.19 0 0 1 28.077 69.662c0 24.958-5.611 33.396-22.265 33.396zm-77.924 0c-18.444 0-33.397-14.952-33.397-33.396s14.953-33.397 33.397-33.397 33.396 14.953 33.396 33.397-14.952 33.397-33.396 33.397z" fill="#303030"/>
<path d="m313.99 168.3-30.708 22.265c-16.268 12.026-38.474 12.026-54.742 0l-30.709-22.264-181.58 181.68a55.614 55.614 0 0 0 39.387 16.253h56.187c6.02-79.613 75.403-139.27 154.97-133.24 71.2 5.39 127.79 62.009 133.17 133.24h56.21a55.618 55.618 0 0 0 39.388-16.253l-181.58-181.68z" fill="#ffa000"/>
</svg>
